<?xml version="1.0" standalone="no"?>
<!DOCTYPE svg PUBLIC "-//W3C//DTD SVG 20010904//EN"
 "http://www.w3.org/TR/2001/REC-SVG-20010904/DTD/svg10.dtd">
<svg version="1.0" xmlns="http://www.w3.org/2000/svg"
 width="30.000000pt" height="30.000000pt" viewBox="0 0 30.000000 30.000000"
 preserveAspectRatio="xMidYMid meet">
<metadata>
Created by potrace 1.15, written by Peter Selinger 2001-2017
</metadata>
<g transform="translate(0.000000,30.000000) scale(0.100000,-0.100000)"
fill="#000000" stroke="none">
<path d="M64 266 c-19 -19 -34 -43 -34 -54 0 -11 -7 -22 -15 -26 -23 -8 -19
-63 5 -78 11 -7 27 -34 36 -60 l16 -48 83 0 83 0 12 50 c7 30 20 54 31 61 25
13 24 42 -2 96 -32 65 -70 93 -131 93 -44 0 -54 -4 -84 -34z m149 -16 c14 -11
28 -34 32 -51 4 -17 13 -33 21 -36 24 -9 15 -26 -11 -21 -14 3 -30 -1 -36 -8
-13 -16 -45 -19 -53 -5 -3 4 -35 7 -70 5 -68 -3 -86 5 -63 28 7 7 19 28 26 46
8 18 23 39 35 47 30 21 89 19 119 -5z"/>
</g>
</svg>
